<?xml version="1.0" encoding="UTF-8"?>
<svg width="256" height="256" viewBox="0 0 256 256" xmlns="http://www.w3.org/2000/svg">
    <!-- Background circle -->
    <circle cx="128" cy="128" r="120" fill="#2c3e50"/>
    
    <!-- Outer ring -->
    <circle cx="128" cy="128" r="100" stroke="#3498db" stroke-width="8" fill="none"/>
    
    <!-- Lock body -->
    <rect x="88" y="100" width="80" height="70" rx="10" ry="10" fill="#3498db"/>
    
    <!-- Lock arch -->
    <path d="M 108,100 Q 128,70 148,100" stroke="#3498db" stroke-width="8" fill="none"/>
    
    <!-- Keyhole -->
    <circle cx="128" cy="130" r="8" fill="#2c3e50"/>
    <rect x="124" y="130" width="8" height="20" fill="#2c3e50"/>
    
    <!-- Shield effect -->
    <path d="M 80,80 C 80,60 100,40 128,40 C 156,40 176,60 176,80" 
          stroke="#2ecc71" stroke-width="4" fill="none" opacity="0.7"/>
    
    <!-- Radiating lines -->
    <g opacity="0.3">
        <line x1="128" y1="28" x2="128" y2="10" stroke="#ecf0f1" stroke-width="2"/>
        <line x1="198" y1="128" x2="216" y2="128" stroke="#ecf0f1" stroke-width="2"/>
        <line x1="128" y1="228" x2="128" y2="246" stroke="#ecf0f1" stroke-width="2"/>
        <line x1="58" y1="128" x2="40" y2="128" stroke="#ecf0f1" stroke-width="2"/>
        
        <line x1="180" y1="76" x2="190" y2="66" stroke="#ecf0f1" stroke-width="2"/>
        <line x1="180" y1="180" x2="190" y2="190" stroke="#ecf0f1" stroke-width="2"/>
        <line x1="76" y1="180" x2="66" y2="190" stroke="#ecf0f1" stroke-width="2"/>
        <line x1="76" y1="76" x2="66" y2="66" stroke="#ecf0f1" stroke-width="2"/>
    </g>
    
    <!-- Text -->
    <text x="128" y="209" text-anchor="middle" fill="#ecf0f1" font-family="Arial, sans-serif" font-size="14">
        CipherForge
    </text>
</svg>
