<svg xmlns="http://www.w3.org/2000/svg" viewBox="0 0 24 24" fill="currentColor">
  <path d="M12 .5C5.65.5.5 5.65.5 12c0 5.1 3.29 9.43 7.86 10.96.58.1.79-.25.79-.56v-2.1c-3.2.7-3.88-1.54-3.88-1.54-.52-1.32-1.27-1.67-1.27-1.67-1.04-.71.08-.7.08-.7 1.15.08 1.76 1.18 1.76 1.18 1.02 1.75 2.67 1.24 3.32.95.1-.74.4-1.24.72-1.52-2.55-.29-5.23-1.27-5.23-5.65 0-1.25.45-2.27 1.18-3.07-.12-.29-.51-1.46.11-3.05 0 0 .96-.31 3.15 1.17a10.9 10.9 0 0 1 5.74 0c2.19-1.48 3.15-1.17 3.15-1.17.62 1.59.23 2.76.11 3.05.74.8 1.18 1.82 1.18 3.07 0 4.39-2.68 5.35-5.24 5.63.41.36.78 1.08.78 2.18v3.23c0 .31.21.66.8.55A11.51 11.51 0 0 0 23.5 12C23.5 5.65 18.35.5 12 .5z"/>
</svg>
